<mxfile host="app.diagrams.net" agent="Mozilla/5.0 (Windows NT 10.0; Win64; x64) AppleWebKit/537.36 (KHTML, like Gecko) Chrome/130.0.0.0 YaBrowser/24.12.0.0 Safari/537.36" version="25.0.3">
  <diagram name="Страница — 1" id="q7YFhV1bXRWW1fUIAIux">
    <mxGraphModel dx="1290" dy="567" grid="1" gridSize="10" guides="1" tooltips="1" connect="1" arrows="1" fold="1" page="1" pageScale="1" pageWidth="827" pageHeight="1169" math="0" shadow="0">
      <root>
        <mxCell id="0" />
        <mxCell id="1" parent="0" />
        <mxCell id="elJjlRm6JyyPoK9hh2Qn-6" style="edgeStyle=orthogonalEdgeStyle;rounded=0;orthogonalLoop=1;jettySize=auto;html=1;" parent="1" source="elJjlRm6JyyPoK9hh2Qn-1" target="elJjlRm6JyyPoK9hh2Qn-2" edge="1">
          <mxGeometry relative="1" as="geometry" />
        </mxCell>
        <mxCell id="elJjlRm6JyyPoK9hh2Qn-1" value="Начало" style="ellipse;whiteSpace=wrap;html=1;" parent="1" vertex="1">
          <mxGeometry x="100" y="60" width="140" height="50" as="geometry" />
        </mxCell>
        <mxCell id="elJjlRm6JyyPoK9hh2Qn-7" style="edgeStyle=orthogonalEdgeStyle;rounded=0;orthogonalLoop=1;jettySize=auto;html=1;" parent="1" source="elJjlRm6JyyPoK9hh2Qn-2" target="elJjlRm6JyyPoK9hh2Qn-3" edge="1">
          <mxGeometry relative="1" as="geometry" />
        </mxCell>
        <mxCell id="elJjlRm6JyyPoK9hh2Qn-2" value="Ввод a, b, c" style="shape=parallelogram;perimeter=parallelogramPerimeter;whiteSpace=wrap;html=1;fixedSize=1;" parent="1" vertex="1">
          <mxGeometry x="95" y="130" width="150" height="50" as="geometry" />
        </mxCell>
        <mxCell id="elJjlRm6JyyPoK9hh2Qn-26" style="edgeStyle=orthogonalEdgeStyle;rounded=0;orthogonalLoop=1;jettySize=auto;html=1;" parent="1" source="elJjlRm6JyyPoK9hh2Qn-3" target="elJjlRm6JyyPoK9hh2Qn-8" edge="1">
          <mxGeometry relative="1" as="geometry" />
        </mxCell>
        <mxCell id="elJjlRm6JyyPoK9hh2Qn-3" value="D := b^2 - 4*a*c" style="rounded=0;whiteSpace=wrap;html=1;" parent="1" vertex="1">
          <mxGeometry x="105" y="200" width="130" height="50" as="geometry" />
        </mxCell>
        <mxCell id="elJjlRm6JyyPoK9hh2Qn-11" style="edgeStyle=orthogonalEdgeStyle;rounded=0;orthogonalLoop=1;jettySize=auto;html=1;" parent="1" source="elJjlRm6JyyPoK9hh2Qn-8" target="elJjlRm6JyyPoK9hh2Qn-10" edge="1">
          <mxGeometry relative="1" as="geometry" />
        </mxCell>
        <mxCell id="elJjlRm6JyyPoK9hh2Qn-13" style="edgeStyle=orthogonalEdgeStyle;rounded=0;orthogonalLoop=1;jettySize=auto;html=1;" parent="1" source="elJjlRm6JyyPoK9hh2Qn-8" target="elJjlRm6JyyPoK9hh2Qn-12" edge="1">
          <mxGeometry relative="1" as="geometry" />
        </mxCell>
        <mxCell id="elJjlRm6JyyPoK9hh2Qn-8" value="D &amp;gt; 0" style="rhombus;whiteSpace=wrap;html=1;" parent="1" vertex="1">
          <mxGeometry x="103.75" y="270" width="132.5" height="60" as="geometry" />
        </mxCell>
        <mxCell id="elJjlRm6JyyPoK9hh2Qn-17" style="edgeStyle=orthogonalEdgeStyle;rounded=0;orthogonalLoop=1;jettySize=auto;html=1;" parent="1" source="elJjlRm6JyyPoK9hh2Qn-10" target="elJjlRm6JyyPoK9hh2Qn-16" edge="1">
          <mxGeometry relative="1" as="geometry" />
        </mxCell>
        <mxCell id="elJjlRm6JyyPoK9hh2Qn-21" style="edgeStyle=orthogonalEdgeStyle;rounded=0;orthogonalLoop=1;jettySize=auto;html=1;" parent="1" source="elJjlRm6JyyPoK9hh2Qn-10" target="elJjlRm6JyyPoK9hh2Qn-20" edge="1">
          <mxGeometry relative="1" as="geometry" />
        </mxCell>
        <mxCell id="elJjlRm6JyyPoK9hh2Qn-10" value="D = 0" style="rhombus;whiteSpace=wrap;html=1;" parent="1" vertex="1">
          <mxGeometry x="270" y="270" width="132.5" height="60" as="geometry" />
        </mxCell>
        <mxCell id="elJjlRm6JyyPoK9hh2Qn-15" style="edgeStyle=orthogonalEdgeStyle;rounded=0;orthogonalLoop=1;jettySize=auto;html=1;" parent="1" source="elJjlRm6JyyPoK9hh2Qn-12" target="elJjlRm6JyyPoK9hh2Qn-14" edge="1">
          <mxGeometry relative="1" as="geometry" />
        </mxCell>
        <mxCell id="elJjlRm6JyyPoK9hh2Qn-12" value="&lt;div style=&quot;text-align: left;&quot;&gt;&lt;span style=&quot;background-color: initial;&quot;&gt;x1 := (&lt;/span&gt;&lt;span style=&quot;color: rgb(51, 51, 51); background-color: rgb(255, 255, 255);&quot;&gt;−b + √D) / 2*a&lt;/span&gt;&lt;/div&gt;&lt;div style=&quot;text-align: left;&quot;&gt;x2 := (&lt;span style=&quot;color: rgb(51, 51, 51); background-color: rgb(255, 255, 255);&quot;&gt;−b - √D) / 2*a&lt;/span&gt;&lt;font style=&quot;font-size: 12px;&quot; face=&quot;Helvetica&quot;&gt;&lt;span style=&quot;color: rgb(51, 51, 51); text-align: left; background-color: rgb(255, 255, 255);&quot;&gt;&lt;br&gt;&lt;/span&gt;&lt;/font&gt;&lt;/div&gt;" style="rounded=0;whiteSpace=wrap;html=1;" parent="1" vertex="1">
          <mxGeometry x="105" y="350" width="130" height="50" as="geometry" />
        </mxCell>
        <mxCell id="elJjlRm6JyyPoK9hh2Qn-27" style="edgeStyle=orthogonalEdgeStyle;rounded=0;orthogonalLoop=1;jettySize=auto;html=1;" parent="1" source="elJjlRm6JyyPoK9hh2Qn-14" target="elJjlRm6JyyPoK9hh2Qn-4" edge="1">
          <mxGeometry relative="1" as="geometry" />
        </mxCell>
        <mxCell id="elJjlRm6JyyPoK9hh2Qn-14" value="Вывод x1, x2" style="shape=parallelogram;perimeter=parallelogramPerimeter;whiteSpace=wrap;html=1;fixedSize=1;" parent="1" vertex="1">
          <mxGeometry x="95" y="420" width="150" height="50" as="geometry" />
        </mxCell>
        <mxCell id="elJjlRm6JyyPoK9hh2Qn-19" style="edgeStyle=orthogonalEdgeStyle;rounded=0;orthogonalLoop=1;jettySize=auto;html=1;" parent="1" source="elJjlRm6JyyPoK9hh2Qn-16" target="elJjlRm6JyyPoK9hh2Qn-18" edge="1">
          <mxGeometry relative="1" as="geometry" />
        </mxCell>
        <mxCell id="elJjlRm6JyyPoK9hh2Qn-16" value="&lt;div style=&quot;text-align: left;&quot;&gt;&lt;span style=&quot;background-color: rgb(255, 255, 255); color: rgb(51, 51, 51);&quot;&gt;&lt;font face=&quot;Helvetica&quot; style=&quot;font-size: 12px;&quot;&gt;x := −b / 2*a&lt;/font&gt;&lt;/span&gt;&lt;/div&gt;" style="rounded=0;whiteSpace=wrap;html=1;" parent="1" vertex="1">
          <mxGeometry x="271.25" y="350" width="130" height="50" as="geometry" />
        </mxCell>
        <mxCell id="elJjlRm6JyyPoK9hh2Qn-28" style="edgeStyle=orthogonalEdgeStyle;rounded=0;orthogonalLoop=1;jettySize=auto;html=1;entryX=0.5;entryY=0;entryDx=0;entryDy=0;" parent="1" source="elJjlRm6JyyPoK9hh2Qn-18" target="elJjlRm6JyyPoK9hh2Qn-4" edge="1">
          <mxGeometry relative="1" as="geometry">
            <Array as="points">
              <mxPoint x="336" y="480" />
              <mxPoint x="170" y="480" />
            </Array>
          </mxGeometry>
        </mxCell>
        <mxCell id="elJjlRm6JyyPoK9hh2Qn-18" value="Вывод x" style="shape=parallelogram;perimeter=parallelogramPerimeter;whiteSpace=wrap;html=1;fixedSize=1;" parent="1" vertex="1">
          <mxGeometry x="261.25" y="420" width="150" height="50" as="geometry" />
        </mxCell>
        <mxCell id="elJjlRm6JyyPoK9hh2Qn-29" style="edgeStyle=orthogonalEdgeStyle;rounded=0;orthogonalLoop=1;jettySize=auto;html=1;" parent="1" source="elJjlRm6JyyPoK9hh2Qn-20" target="elJjlRm6JyyPoK9hh2Qn-4" edge="1">
          <mxGeometry relative="1" as="geometry">
            <Array as="points">
              <mxPoint x="495" y="480" />
              <mxPoint x="170" y="480" />
            </Array>
          </mxGeometry>
        </mxCell>
        <mxCell id="elJjlRm6JyyPoK9hh2Qn-20" value="Вывод &#39;корней нет&#39;" style="shape=parallelogram;perimeter=parallelogramPerimeter;whiteSpace=wrap;html=1;fixedSize=1;" parent="1" vertex="1">
          <mxGeometry x="420" y="420" width="150" height="50" as="geometry" />
        </mxCell>
        <mxCell id="elJjlRm6JyyPoK9hh2Qn-4" value="Конец" style="ellipse;whiteSpace=wrap;html=1;" parent="1" vertex="1">
          <mxGeometry x="100" y="500" width="140" height="50" as="geometry" />
        </mxCell>
        <mxCell id="elJjlRm6JyyPoK9hh2Qn-30" value="да" style="text;html=1;align=center;verticalAlign=middle;whiteSpace=wrap;rounded=0;" parent="1" vertex="1">
          <mxGeometry x="148" y="326" width="20" height="10" as="geometry" />
        </mxCell>
        <mxCell id="elJjlRm6JyyPoK9hh2Qn-31" value="да" style="text;html=1;align=center;verticalAlign=middle;whiteSpace=wrap;rounded=0;" parent="1" vertex="1">
          <mxGeometry x="317" y="326" width="20" height="10" as="geometry" />
        </mxCell>
        <mxCell id="elJjlRm6JyyPoK9hh2Qn-33" value="нет" style="text;html=1;align=center;verticalAlign=middle;whiteSpace=wrap;rounded=0;" parent="1" vertex="1">
          <mxGeometry x="390" y="287" width="30" height="10" as="geometry" />
        </mxCell>
        <mxCell id="elJjlRm6JyyPoK9hh2Qn-37" value="нет" style="text;html=1;align=center;verticalAlign=middle;whiteSpace=wrap;rounded=0;" parent="1" vertex="1">
          <mxGeometry x="220" y="287" width="30" height="10" as="geometry" />
        </mxCell>
        <mxCell id="elJjlRm6JyyPoK9hh2Qn-38" value="" style="group" parent="1" vertex="1" connectable="0">
          <mxGeometry x="290" y="140" width="150" height="30" as="geometry" />
        </mxCell>
        <mxCell id="elJjlRm6JyyPoK9hh2Qn-39" value="" style="shape=partialRectangle;whiteSpace=wrap;html=1;bottom=1;right=1;left=1;top=0;fillColor=none;routingCenterX=-0.5;rotation=90;" parent="elJjlRm6JyyPoK9hh2Qn-38" vertex="1">
          <mxGeometry x="-10" y="10" width="30" height="10" as="geometry" />
        </mxCell>
        <mxCell id="elJjlRm6JyyPoK9hh2Qn-41" value="Ввод параметров для квадратного уравнения" style="text;html=1;align=left;verticalAlign=middle;whiteSpace=wrap;rounded=0;" parent="elJjlRm6JyyPoK9hh2Qn-38" vertex="1">
          <mxGeometry x="10" width="140" height="30" as="geometry" />
        </mxCell>
        <mxCell id="elJjlRm6JyyPoK9hh2Qn-40" value="" style="endArrow=none;dashed=1;html=1;rounded=0;entryX=0.5;entryY=1;entryDx=0;entryDy=0;" parent="1" source="elJjlRm6JyyPoK9hh2Qn-2" target="elJjlRm6JyyPoK9hh2Qn-39" edge="1">
          <mxGeometry width="50" height="50" relative="1" as="geometry">
            <mxPoint x="500" y="410" as="sourcePoint" />
            <mxPoint x="550" y="360" as="targetPoint" />
          </mxGeometry>
        </mxCell>
        <mxCell id="elJjlRm6JyyPoK9hh2Qn-43" value="" style="shape=partialRectangle;whiteSpace=wrap;html=1;bottom=1;right=1;left=1;top=0;fillColor=none;routingCenterX=-0.5;rotation=90;" parent="1" vertex="1">
          <mxGeometry x="278.75" y="220" width="30" height="10" as="geometry" />
        </mxCell>
        <mxCell id="elJjlRm6JyyPoK9hh2Qn-44" value="Нахождение дискриминанта (D)" style="text;html=1;align=left;verticalAlign=middle;whiteSpace=wrap;rounded=0;" parent="1" vertex="1">
          <mxGeometry x="298.75" y="210" width="140" height="30" as="geometry" />
        </mxCell>
        <mxCell id="elJjlRm6JyyPoK9hh2Qn-45" value="" style="endArrow=none;dashed=1;html=1;rounded=0;entryX=0.5;entryY=1;entryDx=0;entryDy=0;" parent="1" target="elJjlRm6JyyPoK9hh2Qn-43" edge="1">
          <mxGeometry width="50" height="50" relative="1" as="geometry">
            <mxPoint x="233.75" y="225" as="sourcePoint" />
            <mxPoint x="548.75" y="430" as="targetPoint" />
          </mxGeometry>
        </mxCell>
        <mxCell id="elJjlRm6JyyPoK9hh2Qn-48" value="" style="shape=partialRectangle;whiteSpace=wrap;html=1;bottom=1;right=1;left=1;top=0;fillColor=none;routingCenterX=-0.5;rotation=90;" parent="1" vertex="1">
          <mxGeometry x="508.75" y="296.25" width="46.5" height="10" as="geometry" />
        </mxCell>
        <mxCell id="elJjlRm6JyyPoK9hh2Qn-49" value="Проверка значения D ( больше 0 или равно 0)" style="text;html=1;align=left;verticalAlign=middle;whiteSpace=wrap;rounded=0;" parent="1" vertex="1">
          <mxGeometry x="537" y="285" width="203" height="30" as="geometry" />
        </mxCell>
        <mxCell id="elJjlRm6JyyPoK9hh2Qn-50" value="" style="endArrow=none;dashed=1;html=1;rounded=0;entryX=0.5;entryY=1;entryDx=0;entryDy=0;" parent="1" target="elJjlRm6JyyPoK9hh2Qn-48" edge="1">
          <mxGeometry width="50" height="50" relative="1" as="geometry">
            <mxPoint x="472" y="300" as="sourcePoint" />
            <mxPoint x="787" y="505" as="targetPoint" />
          </mxGeometry>
        </mxCell>
        <mxCell id="elJjlRm6JyyPoK9hh2Qn-53" value="" style="endArrow=none;dashed=1;html=1;rounded=0;" parent="1" edge="1">
          <mxGeometry width="50" height="50" relative="1" as="geometry">
            <mxPoint x="90" y="340" as="sourcePoint" />
            <mxPoint x="410" y="340" as="targetPoint" />
          </mxGeometry>
        </mxCell>
        <mxCell id="elJjlRm6JyyPoK9hh2Qn-54" value="" style="endArrow=none;dashed=1;html=1;rounded=0;" parent="1" edge="1">
          <mxGeometry width="50" height="50" relative="1" as="geometry">
            <mxPoint x="91.25" y="410" as="sourcePoint" />
            <mxPoint x="411.25" y="410" as="targetPoint" />
          </mxGeometry>
        </mxCell>
        <mxCell id="elJjlRm6JyyPoK9hh2Qn-55" value="" style="endArrow=none;dashed=1;html=1;rounded=0;" parent="1" edge="1">
          <mxGeometry width="50" height="50" relative="1" as="geometry">
            <mxPoint x="411" y="410" as="sourcePoint" />
            <mxPoint x="411" y="340" as="targetPoint" />
          </mxGeometry>
        </mxCell>
        <mxCell id="elJjlRm6JyyPoK9hh2Qn-56" value="" style="endArrow=none;dashed=1;html=1;rounded=0;" parent="1" edge="1">
          <mxGeometry width="50" height="50" relative="1" as="geometry">
            <mxPoint x="90" y="409" as="sourcePoint" />
            <mxPoint x="90" y="339" as="targetPoint" />
          </mxGeometry>
        </mxCell>
        <mxCell id="elJjlRm6JyyPoK9hh2Qn-57" value="" style="shape=partialRectangle;whiteSpace=wrap;html=1;bottom=1;right=1;left=1;top=0;fillColor=none;routingCenterX=-0.5;rotation=90;" parent="1" vertex="1">
          <mxGeometry x="508.75" y="373.75" width="47.5" height="10" as="geometry" />
        </mxCell>
        <mxCell id="elJjlRm6JyyPoK9hh2Qn-58" value="Нахождение 2 корней уравнения (x1, x2), если D &amp;gt; 0. Или нахождение одного корня (x), если D =0." style="text;html=1;align=left;verticalAlign=middle;whiteSpace=wrap;rounded=0;" parent="1" vertex="1">
          <mxGeometry x="537.5" y="360" width="215" height="30" as="geometry" />
        </mxCell>
        <mxCell id="elJjlRm6JyyPoK9hh2Qn-59" value="" style="endArrow=none;dashed=1;html=1;rounded=0;entryX=0.5;entryY=1;entryDx=0;entryDy=0;" parent="1" target="elJjlRm6JyyPoK9hh2Qn-57" edge="1">
          <mxGeometry width="50" height="50" relative="1" as="geometry">
            <mxPoint x="410" y="379" as="sourcePoint" />
            <mxPoint x="785" y="580" as="targetPoint" />
          </mxGeometry>
        </mxCell>
        <mxCell id="elJjlRm6JyyPoK9hh2Qn-62" value="" style="shape=partialRectangle;whiteSpace=wrap;html=1;bottom=1;right=1;left=1;top=0;fillColor=none;routingCenterX=-0.5;rotation=90;" parent="1" vertex="1">
          <mxGeometry x="592.5" y="440" width="30" height="10" as="geometry" />
        </mxCell>
        <mxCell id="elJjlRm6JyyPoK9hh2Qn-63" value="Если D = 0, то корней нет" style="text;html=1;align=left;verticalAlign=middle;whiteSpace=wrap;rounded=0;" parent="1" vertex="1">
          <mxGeometry x="612.5" y="430" width="87.5" height="30" as="geometry" />
        </mxCell>
        <mxCell id="elJjlRm6JyyPoK9hh2Qn-64" value="" style="endArrow=none;dashed=1;html=1;rounded=0;entryX=0.5;entryY=1;entryDx=0;entryDy=0;" parent="1" source="elJjlRm6JyyPoK9hh2Qn-20" target="elJjlRm6JyyPoK9hh2Qn-62" edge="1">
          <mxGeometry width="50" height="50" relative="1" as="geometry">
            <mxPoint x="547.5" y="445" as="sourcePoint" />
            <mxPoint x="862.5" y="650" as="targetPoint" />
          </mxGeometry>
        </mxCell>
        <mxCell id="cIh-s9w171d_n9dRuUUc-1" value="ЗАДАЧА №58&lt;div&gt;По заданным параметрам a, b и с найдите корни квадратного уравнения&lt;br&gt;&lt;/div&gt;" style="text;html=1;align=center;verticalAlign=middle;whiteSpace=wrap;rounded=0;" parent="1" vertex="1">
          <mxGeometry x="250" y="70" width="268.75" height="30" as="geometry" />
        </mxCell>
      </root>
    </mxGraphModel>
  </diagram>
</mxfile>
